<svg width="261" height="55" viewBox="0 0 261 55" fill="none" xmlns="http://www.w3.org/2000/svg">
<path d="M32.4329 11.0001C33.2144 11.0005 33.4717 11.5171 33.4719 11.8766C33.4719 12.2359 33.2613 12.5253 33.0337 12.753C32.5475 13.2392 31.8469 14.328 30.8427 16.2584C29.8386 18.1891 29.5795 18.4025 29.5795 18.4025C29.5795 18.4025 28.6458 19.4843 27.9345 19.4844H24.4032C23.8945 19.4844 22.7394 20.2023 22.7394 21.927C22.7394 23.6517 23.8674 24.4261 24.4032 24.4261H27.9345C28.6457 24.4261 29.5795 25.5079 29.5795 25.5079C29.5795 25.5079 30.2769 26.5974 31.2809 28.5281C32.285 30.4585 32.5474 30.6714 33.0337 31.1575C33.2613 31.3851 33.4718 31.6747 33.4719 32.0339C33.4718 32.3934 33.2145 32.91 32.4329 32.9103C31.6515 32.9106 22.8956 32.9103 22.8258 32.9103C16.8256 32.9103 12.0002 28.5186 12 22.5184V22.0237C12 22.0009 12.0007 21.978 12.0009 21.9552C12.0007 21.9325 12 21.9096 12 21.8868V21.3921C12.0003 15.392 16.8256 11.0001 22.8258 11.0001C24.4032 11.0001 31.6515 10.9998 32.4329 11.0001Z" fill="#FA5224"/>
<path d="M40.1743 22.3947C41.1328 22.3947 42.0612 22.5071 42.9448 22.7199C42.7694 23.3123 42.6743 23.9396 42.6743 24.589C42.6744 28.2191 45.6174 31.1623 49.2476 31.1623C49.798 31.1622 50.3323 31.0925 50.8433 30.965C50.9441 31.5527 51.0005 32.1604 51.0005 32.7863V33.2814C51.0005 33.3041 50.9997 33.327 50.9995 33.3498C50.9997 33.3724 51.0005 33.3954 51.0005 33.4181V33.9123C51.0002 39.9123 46.1744 44.3048 40.1743 44.3048C38.597 44.3048 31.3483 44.3052 30.5669 44.3048C29.7855 44.3044 29.5281 43.7873 29.5278 43.4279C29.528 43.0687 29.7388 42.7794 29.9663 42.5519C30.4525 42.0657 31.1535 40.9765 32.1577 39.046C33.1454 37.1469 33.4121 36.9096 33.4204 36.9025C33.4204 36.9025 34.3546 35.8205 35.0659 35.8205H38.5972C39.106 35.8201 40.2601 35.1022 40.2603 33.3781C40.2603 31.6537 39.1331 30.8794 38.5972 30.879H35.0659C34.357 30.879 33.4265 29.804 33.4204 29.797C33.4204 29.797 32.7232 28.7072 31.7192 26.7765C30.7153 24.8465 30.4525 24.6336 29.9663 24.1476C29.7388 23.92 29.5279 23.6299 29.5278 23.2707C29.5281 22.9112 29.7856 22.3951 30.5669 22.3947C31.3483 22.3944 40.1046 22.3947 40.1743 22.3947Z" fill="#FA5224"/>
<path d="M243.014 38.4197C242.179 38.4197 241.354 38.3077 240.54 38.0837C239.746 37.8598 239.013 37.5543 238.341 37.1674C237.943 36.9262 237.577 36.6565 237.243 36.3581C236.855 36.0115 236.881 35.4167 237.246 35.0466L238.234 34.0463C238.639 33.6357 239.302 33.6635 239.766 34.0068C240.073 34.234 240.402 34.4221 240.753 34.5713C241.425 34.8563 242.169 34.9989 242.983 34.9989C243.635 34.9989 244.123 34.9072 244.449 34.724C244.795 34.5407 244.968 34.2658 244.968 33.8993C244.968 33.4921 244.785 33.1765 244.419 32.9525C244.073 32.7285 243.614 32.5452 243.044 32.4027C242.474 32.2398 241.873 32.0667 241.242 31.8835C240.631 31.6798 240.041 31.4253 239.471 31.1199C238.901 30.7941 238.432 30.3563 238.066 29.8065C237.72 29.2364 237.546 28.5033 237.546 27.6074C237.546 26.6708 237.77 25.8563 238.218 25.164C238.687 24.4716 239.348 23.932 240.204 23.5452C241.059 23.1583 242.067 22.9648 243.227 22.9648C244.449 22.9648 245.549 23.1786 246.526 23.6063C247.25 23.9164 247.882 24.3391 248.424 24.8742C248.78 25.226 248.736 25.7945 248.382 26.1485L247.37 27.1605C246.951 27.5794 246.269 27.5283 245.793 27.1755C245.561 27.0034 245.317 26.8623 245.06 26.7522C244.51 26.5079 243.91 26.3857 243.258 26.3857C242.668 26.3857 242.209 26.4773 241.884 26.6606C241.578 26.8438 241.425 27.0984 241.425 27.4242C241.425 27.7907 241.599 28.0757 241.945 28.2794C242.311 28.483 242.78 28.6662 243.35 28.8291C243.92 28.9717 244.51 29.1448 245.121 29.3484C245.752 29.5316 246.343 29.7963 246.893 30.1425C247.463 30.4887 247.921 30.9468 248.267 31.5169C248.634 32.0871 248.817 32.8201 248.817 33.7161C248.817 35.1618 248.298 36.3122 247.259 37.1674C246.221 38.0023 244.806 38.4197 243.014 38.4197Z" fill="#FA5224"/>
<path d="M228.173 38.3882C227.114 38.3882 226.157 38.1642 225.302 37.7162C224.447 37.2683 223.764 36.6574 223.255 35.8836C222.746 35.1099 222.471 34.2445 222.431 33.2875V28.034C222.471 27.077 222.746 26.2218 223.255 25.4684C223.785 24.6946 224.477 24.094 225.332 23.6663C226.188 23.2387 227.134 23.0249 228.173 23.0249C229.537 23.0249 230.759 23.3609 231.838 24.0329C232.917 24.7048 233.762 25.6211 234.373 26.7818C235.004 27.9424 235.32 29.2558 235.32 30.7218C235.32 32.1675 235.004 33.4707 234.373 34.6314C233.762 35.792 232.917 36.7083 231.838 37.3803C230.759 38.0522 229.537 38.3882 228.173 38.3882ZM220.987 38.0828C220.435 38.0828 219.987 37.635 219.987 37.0828V17C219.987 16.4477 220.435 16 220.987 16H222.988C223.541 16 223.988 16.4477 223.988 17V26.871C223.988 26.9335 223.983 26.9959 223.971 27.0574L223.351 30.3274C223.328 30.4468 223.327 30.5694 223.349 30.689L223.942 34.0252C223.953 34.083 223.958 34.1417 223.958 34.2004V37.0828C223.958 37.635 223.51 38.0828 222.958 38.0828H220.987ZM227.501 34.6925C228.234 34.6925 228.875 34.5296 229.425 34.2038C229.995 33.8576 230.433 33.3893 230.739 32.7988C231.064 32.1879 231.227 31.4854 231.227 30.6913C231.227 29.9175 231.064 29.2354 230.739 28.6449C230.433 28.034 229.995 27.5657 229.425 27.2399C228.855 26.8937 228.203 26.7207 227.47 26.7207C226.737 26.7207 226.086 26.8937 225.516 27.2399C224.966 27.5657 224.528 28.034 224.202 28.6449C223.897 29.2354 223.744 29.9175 223.744 30.6913C223.744 31.4854 223.897 32.1879 224.202 32.7988C224.528 33.3893 224.976 33.8576 225.546 34.2038C226.116 34.5296 226.768 34.6925 227.501 34.6925Z" fill="#FA5224"/>
<path d="M194.5 38.0812C193.948 38.0812 193.5 37.6335 193.5 37.0812V24.3289C193.5 23.7766 193.948 23.3289 194.5 23.3289H196.502C197.054 23.3289 197.502 23.7766 197.502 24.3289V37.0812C197.502 37.6335 197.054 38.0812 196.502 38.0812H194.5ZM204.122 38.0812C203.569 38.0812 203.122 37.6335 203.122 37.0812V29.3764C203.122 28.5212 202.847 27.8594 202.297 27.3911C201.768 26.9024 201.106 26.6581 200.312 26.6581C199.782 26.6581 199.304 26.7701 198.876 26.9941C198.448 27.1977 198.113 27.5031 197.868 27.9104C197.82 27.9902 197.777 28.0732 197.739 28.1593C197.503 28.6854 196.897 29.0803 196.38 28.8266C196.113 28.6958 195.94 28.4241 195.959 28.1275C196.02 27.19 196.259 26.3642 196.677 25.6502C197.186 24.8153 197.868 24.1739 198.723 23.7259C199.579 23.2576 200.546 23.0234 201.625 23.0234C202.643 23.0234 203.57 23.2576 204.404 23.7259C205.239 24.1739 205.901 24.8153 206.39 25.6502C206.878 26.4646 207.123 27.4522 207.123 28.6128V37.0812C207.123 37.6335 206.675 38.0812 206.123 38.0812H204.122ZM213.743 38.0812C213.19 38.0812 212.743 37.6335 212.743 37.0812V29.3764C212.743 28.5212 212.468 27.8594 211.918 27.3911C211.389 26.9024 210.727 26.6581 209.933 26.6581C209.424 26.6581 208.945 26.7701 208.497 26.9941C208.07 27.1977 207.734 27.5031 207.489 27.9104C207.445 27.9848 207.404 28.0619 207.368 28.1418C207.099 28.73 206.518 29.2313 205.889 29.0804L205.654 29.024C205.18 28.9101 204.848 28.4681 204.934 27.9874C205.082 27.1562 205.364 26.4179 205.779 25.7723C206.329 24.8968 207.052 24.2248 207.947 23.7565C208.843 23.2678 209.841 23.0234 210.941 23.0234C212.04 23.0234 213.028 23.2576 213.903 23.7259C214.779 24.1739 215.471 24.8255 215.98 25.6807C216.489 26.5359 216.744 27.554 216.744 28.735V37.0812C216.744 37.6335 216.296 38.0812 215.744 38.0812H213.743Z" fill="#FA5224"/>
<path d="M183.656 38.3898C182.353 38.3898 181.192 38.115 180.174 37.5652C179.176 37.0154 178.392 36.2518 177.822 35.2744C177.252 34.297 176.967 33.1669 176.967 31.8841V24.332C176.967 23.7797 177.415 23.332 177.967 23.332H179.999C180.551 23.332 180.999 23.7797 180.999 24.332V31.7925C180.999 32.4034 181.1 32.9328 181.304 33.3808C181.508 33.8084 181.813 34.1342 182.22 34.3581C182.627 34.5821 183.106 34.6941 183.656 34.6941C184.491 34.6941 185.142 34.4396 185.611 33.9305C186.079 33.4215 186.313 32.7088 186.313 31.7925V24.332C186.313 23.7797 186.761 23.332 187.313 23.332H189.314C189.866 23.332 190.314 23.7797 190.314 24.332V31.8841C190.314 33.1873 190.029 34.3276 189.459 35.305C188.909 36.2824 188.125 37.0459 187.107 37.5957C186.109 38.1251 184.959 38.3898 183.656 38.3898Z" fill="#FA5224"/>
<path d="M165.658 38.0812C165.105 38.0812 164.658 37.6335 164.658 37.0812V24.3289C164.658 23.7766 165.105 23.3289 165.658 23.3289H167.659C168.211 23.3289 168.659 23.7766 168.659 24.3289V37.0812C168.659 37.6335 168.211 38.0812 167.659 38.0812H165.658ZM168.846 28.5278C168.665 29.1056 167.984 29.4765 167.481 29.1407C167.247 28.9851 167.117 28.7126 167.155 28.4347C167.377 26.8363 167.888 25.562 168.689 24.6117C169.565 23.5529 170.827 23.0234 172.477 23.0234C173.189 23.0234 173.831 23.1456 174.401 23.39C174.724 23.5169 175.031 23.6928 175.321 23.9177C175.718 24.2254 175.712 24.8034 175.381 25.182L174.112 26.6372C173.761 27.0393 173.129 27.0287 172.629 26.8413C172.324 26.7192 171.968 26.6581 171.56 26.6581C170.705 26.6581 170.003 26.933 169.453 27.4827C169.18 27.7554 168.978 28.1038 168.846 28.5278Z" fill="#FA5224"/>
<path d="M154.103 38.3867C152.535 38.3867 151.079 38.1118 149.736 37.5621C148.392 36.9919 147.211 36.208 146.193 35.2102C145.195 34.1921 144.421 33.0111 143.871 31.6672C143.342 30.3233 143.077 28.8776 143.077 27.3301C143.077 25.7826 143.342 24.3368 143.871 22.9929C144.421 21.649 145.195 20.4782 146.193 19.4805C147.211 18.4827 148.381 17.6988 149.705 17.1286C151.049 16.5585 152.515 16.2734 154.103 16.2734C155.814 16.2734 157.32 16.5585 158.624 17.1286C159.611 17.5451 160.51 18.0842 161.322 18.746C161.753 19.0975 161.754 19.7405 161.361 20.1338L160.008 21.4866C159.604 21.8908 158.947 21.8667 158.495 21.5173C158.076 21.1941 157.61 20.9224 157.096 20.7022C156.241 20.3357 155.244 20.1524 154.103 20.1524C153.106 20.1524 152.189 20.3255 151.354 20.6717C150.54 20.9975 149.827 21.4861 149.216 22.1377C148.605 22.769 148.137 23.5325 147.811 24.4285C147.486 25.3041 147.323 26.2713 147.323 27.3301C147.323 28.4093 147.486 29.3867 147.811 30.2622C148.137 31.1378 148.605 31.9014 149.216 32.553C149.827 33.1842 150.54 33.6729 151.354 34.0191C152.189 34.3652 153.106 34.5383 154.103 34.5383C155.305 34.5383 156.333 34.355 157.188 33.9885C157.715 33.7682 158.189 33.4926 158.613 33.1619C159.068 32.8063 159.733 32.7766 160.141 33.185L161.49 34.5337C161.881 34.9242 161.884 35.5616 161.458 35.9141C160.639 36.5936 159.724 37.1429 158.715 37.5621C157.392 38.1118 155.854 38.3867 154.103 38.3867Z" fill="#FA5224"/>
<path d="M131.207 38.0828C130.655 38.0828 130.207 37.635 130.207 37.0828V17C130.207 16.4477 130.655 16 131.207 16H133.208C133.76 16 134.208 16.4477 134.208 17V37.0828C134.208 37.635 133.76 38.0828 133.208 38.0828H131.207Z" fill="#FA5224"/>
<path d="M118.42 38.3867C117.077 38.3867 115.865 38.0507 114.786 37.3788C113.707 36.7068 112.862 35.7905 112.251 34.6299C111.64 33.4692 111.334 32.166 111.334 30.7203C111.334 29.2543 111.64 27.9409 112.251 26.7803C112.862 25.6196 113.707 24.7033 114.786 24.0314C115.865 23.3594 117.077 23.0234 118.42 23.0234C119.479 23.0234 120.426 23.2372 121.261 23.6648C122.096 24.0925 122.758 24.6931 123.246 25.4669C123.755 26.2203 124.03 27.0755 124.071 28.0325V33.347C124.03 34.3244 123.755 35.1898 123.246 35.9432C122.758 36.6966 122.096 37.2973 121.261 37.7453C120.426 38.1729 119.479 38.3867 118.42 38.3867ZM119.154 34.6909C120.273 34.6909 121.18 34.3244 121.872 33.5914C122.564 32.838 122.91 31.8708 122.91 30.6898C122.91 29.916 122.747 29.2339 122.422 28.6434C122.116 28.0325 121.678 27.5642 121.108 27.2384C120.559 26.8922 119.907 26.7192 119.154 26.7192C118.421 26.7192 117.769 26.8922 117.199 27.2384C116.649 27.5642 116.211 28.0325 115.885 28.6434C115.58 29.2339 115.427 29.916 115.427 30.6898C115.427 31.4839 115.58 32.1864 115.885 32.7973C116.211 33.3878 116.649 33.8561 117.199 34.2023C117.769 34.5281 118.421 34.6909 119.154 34.6909ZM123.697 38.0812C123.144 38.0812 122.697 37.6335 122.697 37.0812V34.1989C122.697 34.1402 122.702 34.0815 122.712 34.0237L123.307 30.6833C123.327 30.5664 123.327 30.4467 123.306 30.3299L122.713 27.0519C122.702 26.9931 122.697 26.9335 122.697 26.8737V24.3289C122.697 23.7766 123.144 23.3289 123.697 23.3289H125.667C126.219 23.3289 126.667 23.7766 126.667 24.3289V37.0812C126.667 37.6335 126.219 38.0812 125.667 38.0812H123.697Z" fill="#FA5224"/>
<path d="M104.51 38.3899C103.003 38.3899 101.649 38.0539 100.447 37.382C99.246 36.71 98.2991 35.7937 97.6068 34.6331C96.9145 33.4724 96.5684 32.1692 96.5684 30.7235C96.5684 29.2575 96.9145 27.9441 97.6068 26.7835C98.2991 25.6228 99.246 24.7065 100.447 24.0346C101.669 23.3423 103.023 22.9961 104.51 22.9961C105.67 22.9961 106.739 23.2099 107.717 23.6375C108.403 23.9379 109.025 24.3288 109.581 24.8101C109.981 25.1564 109.962 25.7637 109.59 26.14L108.429 27.3141C108.026 27.7225 107.365 27.6934 106.877 27.391C106.69 27.2753 106.492 27.1747 106.281 27.0889C105.752 26.8649 105.161 26.7529 104.51 26.7529C103.777 26.7529 103.115 26.926 102.524 27.2721C101.954 27.5979 101.496 28.0561 101.15 28.6466C100.824 29.2167 100.661 29.8989 100.661 30.693C100.661 31.4667 100.824 32.1591 101.15 32.7699C101.496 33.3604 101.954 33.8288 102.524 34.1749C103.115 34.5007 103.777 34.6636 104.51 34.6636C105.182 34.6636 105.782 34.5516 106.312 34.3276C106.524 34.2332 106.724 34.1236 106.912 33.9988C107.397 33.6775 108.067 33.639 108.477 34.0499L109.633 35.2052C110.013 35.5851 110.029 36.2032 109.621 36.5524C109.042 37.0477 108.407 37.4463 107.717 37.7485C106.739 38.1761 105.67 38.3899 104.51 38.3899Z" fill="#FA5224"/>
<path d="M87.0899 38.3899C85.6035 38.3899 84.2596 38.0539 83.0582 37.382C81.8772 36.6896 80.9303 35.7632 80.2177 34.6025C79.5254 33.4215 79.1792 32.1082 79.1792 30.6624C79.1792 29.2167 79.5254 27.9237 80.2177 26.7835C80.91 25.6228 81.8568 24.7065 83.0582 24.0346C84.2596 23.3423 85.5933 22.9961 87.0594 22.9961C88.5662 22.9961 89.9101 23.3423 91.0911 24.0346C92.2924 24.7065 93.2393 25.6228 93.9316 26.7835C94.6239 27.9237 94.97 29.2167 94.97 30.6624C94.97 32.1082 94.6239 33.4215 93.9316 34.6025C93.2393 35.7632 92.2924 36.6896 91.0911 37.382C89.9101 38.0539 88.5763 38.3899 87.0899 38.3899ZM87.0594 34.6636C87.8128 34.6636 88.4745 34.5007 89.0447 34.1749C89.6352 33.8288 90.0831 33.3604 90.3886 32.7699C90.7144 32.1591 90.8773 31.4667 90.8773 30.693C90.8773 29.9192 90.7144 29.2371 90.3886 28.6466C90.0628 28.0561 89.6148 27.5979 89.0447 27.2721C88.4745 26.926 87.8128 26.7529 87.0594 26.7529C86.3263 26.7529 85.6747 26.926 85.1046 27.2721C84.5344 27.5979 84.0865 28.0561 83.7607 28.6466C83.4349 29.2371 83.272 29.9192 83.272 30.693C83.272 31.4667 83.4349 32.1591 83.7607 32.7699C84.0865 33.3604 84.5344 33.8288 85.1046 34.1749C85.6747 34.5007 86.3263 34.6636 87.0594 34.6636Z" fill="#FA5224"/>
<path d="M65 38.0813C64.4477 38.0813 64 37.6335 64 37.0813V17.6094C64 17.0571 64.4477 16.6094 65 16.6094H67.1539C67.7062 16.6094 68.1539 17.0571 68.1539 17.6094V37.0813C68.1539 37.6335 67.7062 38.0813 67.1539 38.0813H65ZM68.0543 38.0813C67.502 38.0813 67.0543 37.6335 67.0543 37.0813V35.3855C67.0543 34.8332 67.502 34.3855 68.0543 34.3855H76.9888C77.5411 34.3855 77.9888 34.8332 77.9888 35.3855V37.0813C77.9888 37.6335 77.5411 38.0813 76.9888 38.0813H68.0543Z" fill="#FA5224"/>
</svg>
